0
SECTION
2
HEADER
9
$INSUNITS
70
4
9
$ACADVER
1
AC1014
9
$HANDSEED
5
FFFF
0
ENDSEC
0
SECTION
2
TABLES
0
TABLE
2
VPORT
5
8
100
AcDbSymbolTable
0
ENDTAB
0
TABLE
2
LTYPE
5
5
100
AcDbSymbolTable
0
LTYPE
5
14
100
AcDbSymbolTableRecord
100
AcDbLinetypeTableRecord
2
BYBLOCK
70
0
0
LTYPE
5
15
100
AcDbSymbolTableRecord
100
AcDbLinetypeTableRecord
2
BYLAYER
70
0
0
ENDTAB
0
TABLE
2
LAYER
5
2
100
AcDbSymbolTable
70
2
0
LAYER
5
50
100
AcDbSymbolTableRecord
100
AcDbLayerTableRecord
2
0
70
0
6
CONTINUOUS
0
ENDTAB
0
TABLE
2
STYLE
5
3
100
AcDbSymbolTable
70
1
0
STYLE
5
11
100
AcDbSymbolTableRecord
100
AcDbTextStyleTableRecord
2
STANDARD
70
0
0
ENDTAB
0
TABLE
2
VIEW
5
6
100
AcDbSymbolTable
70
0
0
ENDTAB
0
TABLE
2
UCS
5
7
100
AcDbSymbolTable
70
0
0
ENDTAB
0
TABLE
2
APPID
5
9
100
AcDbSymbolTable
70
2
0
APPID
5
12
100
AcDbSymbolTableRecord
100
AcDbRegAppTableRecord
2
ACAD
70
0
0
ENDTAB
0
TABLE
2
DIMSTYLE
5
A
100
AcDbSymbolTable
70
1
0
ENDTAB
0
TABLE
2
BLOCK_RECORD
5
1
100
AcDbSymbolTable
70
1
0
BLOCK_RECORD
5
1F
100
AcDbSymbolTableRecord
100
AcDbBlockTableRecord
2
*MODEL_SPACE
0
BLOCK_RECORD
5
1B
100
AcDbSymbolTableRecord
100
AcDbBlockTableRecord
2
*PAPER_SPACE
0
ENDTAB
0
ENDSEC
0
SECTION
2
BLOCKS
0
BLOCK
5
20
100
AcDbEntity
100
AcDbBlockBegin
2
*MODEL_SPACE
0
ENDBLK
5
21
100
AcDbEntity
100
AcDbBlockEnd
0
BLOCK
5
1C
100
AcDbEntity
100
AcDbBlockBegin
2
*PAPER_SPACE
0
ENDBLK
5
1D
100
AcDbEntity
100
AcDbBlockEnd
0
ENDSEC
0
SECTION
2
ENTITIES
0
LWPOLYLINE
5
100
100
AcDbEntity
8
0
100
AcDbPolyline
90
4
70
1
43
0.0
10
-12.999999332349361
20
-107.6872900182471
10
-32.999999332349368
20
-107.68729001824697
10
-32.999999332349375
20
-110.68729001824698
10
-12.999999332349379
20
-110.68729001824708
0
LWPOLYLINE
5
101
100
AcDbEntity
8
0
100
AcDbPolyline
90
4
70
1
43
0.0
10
-60.000000330727175
20
-110.68729001824684
10
-60.000000330727161
20
-107.68729001824683
10
-80.000000298023764
20
-107.68729001824597
10
-80.000000298023792
20
-110.68729001824599
0
CIRCLE
5
102
100
AcDbEntity
8
0
100
AcDbCircle
10
112.96531303461349
20
-29.737837917993126
30
0
40
1.6000000000000014
210
0
220
0
230
1
0
CIRCLE
5
103
100
AcDbEntity
8
0
100
AcDbCircle
10
128.20531303461274
20
21.062162082007205
30
0
40
1.6000000000000014
210
0
220
0
230
1
0
CIRCLE
5
104
100
AcDbEntity
8
0
100
AcDbCircle
10
85.025313034613404
20
-29.737837917993559
30
0
40
1.6000000000000014
210
0
220
0
230
1
0
CIRCLE
5
105
100
AcDbEntity
8
0
100
AcDbCircle
10
79.945313034612582
20
22.332162082006448
30
0
40
1.6000000000000014
210
0
220
0
230
1
0
CIRCLE
5
106
100
AcDbEntity
8
0
100
AcDbCircle
10
85.051929973576307
20
60.200300438149569
30
0
40
5
210
0
220
0
230
1
0
CIRCLE
5
107
100
AcDbEntity
8
0
100
AcDbCircle
10
-81.920227500034997
20
12.750000000000012
30
0
40
7.9500000000000002
210
0
220
-0
230
1
0
LWPOLYLINE
5
108
100
AcDbEntity
8
0
100
AcDbPolyline
90
4
70
1
43
0.0
10
-93.000001385807991
20
-5.000000074505806
10
-93.000001385807991
20
5.000000074505806
10
-97.000001445412636
20
5.000000074505806
10
-97.000001445412636
20
-5.000000074505806
0
LWPOLYLINE
5
109
100
AcDbEntity
8
0
100
AcDbPolyline
90
4
70
1
43
0.0
10
-80.000000298023764
20
107.68729001824597
10
-60.000000330727161
20
107.68729001824683
10
-60.000000330727175
20
110.68729001824684
10
-80.000000298023792
20
110.68729001824599
0
LWPOLYLINE
5
110
100
AcDbEntity
8
0
100
AcDbPolyline
90
4
70
1
43
0.0
10
-32.999999332349375
20
110.68729001824698
10
-32.999999332349368
20
107.68729001824697
10
-12.999999332349361
20
107.6872900182471
10
-12.999999332349379
20
110.68729001824708
0
LWPOLYLINE
5
111
100
AcDbEntity
8
0
100
AcDbPolyline
90
4
70
1
43
0.0
10
-70
20
100
10
-70
20
-100
10
70
20
-100
10
70
20
100
0
LWPOLYLINE
5
112
100
AcDbEntity
8
0
100
AcDbPolyline
90
8
70
1
43
0.0
10
-95.263137417110059
20
-102.59110414382337
42
-0.43606960814236834
10
-95.263137417110073
20
102.59110414382334
42
0.1685593574615161
10
-79.880947749108259
20
131.53846403253146
42
-0.36966374160322074
10
-70
20
140
10
0
20
140
42
-0.99999999999999989
10
0
20
-140
10
-70.000000000000014
20
-140
42
-0.36966374160321996
10
-79.880947749108259
20
-131.53846403253146
42
0.16855935746151529
0
CIRCLE
5
113
100
AcDbEntity
8
0
100
AcDbCircle
10
-81.920227500034969
20
-12.749999999999988
30
0
40
7.9500000000000002
210
0
220
-0
230
1
0
LWPOLYLINE
5
114
100
AcDbEntity
8
0
100
AcDbPolyline
90
4
70
1
43
0.0
10
-47.41415639447203
20
-96.687290510246825
10
-27.41415639447203
20
-96.687290510246825
10
-27.41415639447203
20
-93.687290510246811
10
-47.41415639447203
20
-93.687290510246811
0
LWPOLYLINE
5
115
100
AcDbEntity
8
0
100
AcDbPolyline
90
4
70
1
43
0.0
10
-27.41415639447203
20
96.687290510246825
10
-47.41415639447203
20
96.687290510246825
10
-47.41415639447203
20
93.687290510246811
10
-27.41415639447203
20
93.687290510246811
0
LWPOLYLINE
5
116
100
AcDbEntity
8
0
100
AcDbPolyline
90
4
70
1
43
0.0
10
-70
20
100
10
70
20
100
10
70
20
-100
10
-70
20
-100
0
CIRCLE
5
117
100
AcDbEntity
8
0
100
AcDbCircle
10
100.90976491805375
20
-122.11856799845343
30
-2.2204460492503131e-15
40
7.5
210
0
220
-0
230
1
0
LWPOLYLINE
5
118
100
AcDbEntity
8
0
100
AcDbPolyline
90
4
70
1
43
0.0
10
124.83987449409037
20
-141.11856799845339
10
124.83987449409037
20
-138.11856799845339
10
114.83987449409037
20
-138.11856799845339
10
114.83987449409037
20
-141.11856799845339
0
LWPOLYLINE
5
119
100
AcDbEntity
8
0
100
AcDbPolyline
90
10
70
1
43
0.0
10
152.26998407012701
20
-135.11856799845339
10
129.83987449409037
20
-135.11856799845339
10
129.83987449409037
20
-144.11856799845341
10
109.83987449409037
20
-144.11856799845341
10
109.83987449409037
20
-135.11856799845339
10
87.40976491805371
20
-135.11856799845339
10
87.409764918053725
20
-114.11856799845339
42
-0.41421356237309503
10
92.40976491805371
20
-109.1185679984534
10
147.26998407012701
20
-109.1185679984534
42
-0.41421356237309293
10
152.26998407012701
20
-114.1185679984534
0
LWPOLYLINE
5
120
100
AcDbEntity
8
0
100
AcDbPolyline
90
4
70
1
43
0.0
10
139.21390198243699
20
-89.806173202739799
10
139.21390198243694
20
-99.806173202739799
10
142.21390198243694
20
-99.806173202739856
10
142.21390198243699
20
-89.806173202739856
0
LWPOLYLINE
5
121
100
AcDbEntity
8
0
100
AcDbPolyline
90
4
70
1
43
0.0
10
139.21390198243722
20
-42.806172204362049
10
139.21390198243716
20
-52.806172204362049
10
142.21390198243716
20
-52.806172204362056
10
142.21390198243722
20
-42.806172204362049
0
LWPOLYLINE
5
122
100
AcDbEntity
8
0
100
AcDbPolyline
90
10
70
1
43
0.0
10
167.21390174227597
20
-104.8061731700366
10
136.21390198243694
20
-104.8061732027398
10
136.21390198243702
20
-84.806173202739814
10
145.21390198243702
20
-84.806173202739856
10
145.21390198243716
20
-57.80617220436207
10
136.21390198243716
20
-57.806172204362021
10
136.21390198243725
20
-37.806172204362021
10
167.21390174227625
20
-37.806173170036573
42
-0.4142135623730987
10
172.21390174227628
20
-42.806173170036601
10
172.21390174227608
20
-99.806173170036601
42
-0.41421356237310125
0
LWPOLYLINE
5
123
100
AcDbEntity
8
0
100
AcDbPolyline
90
12
70
1
43
0.0
10
159.56460598779697
20
-85.964743257492245
10
159.56460598779697
20
-82.500438842521433
10
163.21460598779697
20
-82.500438842521433
10
163.21460598779697
20
-79.80043884252143
10
159.56460598779702
20
-79.80043884252143
10
159.56460598779702
20
-76.336134427550633
42
0.13755428520681384
10
156.86460598779701
20
-76.336134427550633
10
156.86460598779701
20
-79.800438842521402
10
153.21460598779703
20
-79.800438842521402
10
153.214605987797
20
-82.50043884252139
10
156.86460598779698
20
-82.50043884252139
10
156.86460598779695
20
-85.964743257492202
42
0.13755428520682425
0
CIRCLE
5
124
100
AcDbEntity
8
0
100
AcDbCircle
10
94.110689539505728
20
128.204823496095
30
-2.2204460492503131e-15
40
5.0000026999999996
210
0
220
-0
230
1
0
CIRCLE
5
125
100
AcDbEntity
8
0
100
AcDbCircle
10
115.7356323195057
20
128.20482349609455
30
-2.2204460492503131e-15
40
0.62500001999999721
210
0
220
-0
230
1
0
CIRCLE
5
126
100
AcDbEntity
8
0
100
AcDbCircle
10
109.2356300795057
20
128.2048234960946
30
-2.2204460492503131e-15
40
0.62500002000000165
210
0
220
-0
230
1
0
CIRCLE
5
127
100
AcDbEntity
8
0
100
AcDbCircle
10
118.98563343950569
20
128.20482349609449
30
-2.2204460492503131e-15
40
0.62500002000000165
210
0
220
-0
230
1
0
CIRCLE
5
128
100
AcDbEntity
8
0
100
AcDbCircle
10
105.9856289595057
20
128.20482349609466
30
-2.2204460492503131e-15
40
0.62500002000000165
210
0
220
-0
230
1
0
CIRCLE
5
129
100
AcDbEntity
8
0
100
AcDbCircle
10
112.48563119950569
20
128.20482349609458
30
-2.2204460492503131e-15
40
0.62500001999999721
210
0
220
-0
230
1
0
LWPOLYLINE
5
130
100
AcDbEntity
8
0
100
AcDbPolyline
90
4
70
1
43
0.0
10
118.04079911554234
20
144.20482349609497
10
118.04079911554234
20
147.20482349609497
10
108.04079911554234
20
147.20482349609497
10
108.04079911554234
20
144.20482349609497
0
LWPOLYLINE
5
131
100
AcDbEntity
8
0
100
AcDbPolyline
90
10
70
1
43
0.0
10
123.04079911554234
20
141.20482349609497
10
145.47090869157898
20
141.20482349609497
10
145.47090869157898
20
120.20482349609496
42
-0.41421356237309503
10
140.47090869157898
20
115.20482349609496
10
85.610689539505699
20
115.20482349609497
42
-0.41421356237309609
10
80.610689539505699
20
120.20482349609496
10
80.610689539505685
20
141.20482349609497
10
103.04079911554234
20
141.20482349609497
10
103.04079911554234
20
150.20482349609497
10
123.04079911554234
20
150.20482349609497
0
LWPOLYLINE
5
132
100
AcDbEntity
8
0
100
AcDbPolyline
90
8
70
1
43
0.0
10
147.18619375922972
20
97.826664427490527
10
147.18619375922989
20
58.82666442749052
42
0.41421356237306384
10
147.68619375922989
20
58.32666442749052
10
166.68619375922989
20
58.326664427490648
42
0.41421356237306384
10
167.18619375922992
20
58.826664427490627
10
167.18619375922972
20
97.826664427490627
42
0.4142135623730846
10
166.68619375922972
20
98.326664427490641
10
147.68619375922972
20
98.326664427490556
42
0.4142135623730846
0
CIRCLE
5
133
100
AcDbEntity
8
0
100
AcDbCircle
10
152.18619375922975
20
54.326664427490527
30
-2.2204460492503131e-15
40
2.0000000000000195
210
0
220
-0
230
1
0
CIRCLE
5
134
100
AcDbEntity
8
0
100
AcDbCircle
10
162.18619375922987
20
102.32666442749057
30
-2.2204460492503131e-15
40
2.0000000000000329
210
0
220
-0
230
1
0
CIRCLE
5
135
100
AcDbEntity
8
0
100
AcDbCircle
10
162.18619375923009
20
54.32666442749057
30
-2.2204460492503131e-15
40
2.0000000000000284
210
0
220
-0
230
1
0
CIRCLE
5
136
100
AcDbEntity
8
0
100
AcDbCircle
10
152.18619375922955
20
102.32666442749053
30
-2.2204460492503131e-15
40
2.0000000000000338
210
0
220
-0
230
1
0
LWPOLYLINE
5
137
100
AcDbEntity
8
0
100
AcDbPolyline
90
4
70
1
43
0.0
10
138.18548975386821
20
106.98239878770922
10
138.18548975386824
20
96.982398787709215
10
141.18548975386827
20
96.982398787709229
10
141.18548975386824
20
106.98239878770923
0
LWPOLYLINE
5
138
100
AcDbEntity
8
0
100
AcDbPolyline
90
4
70
1
43
0.0
10
138.18548975386844
20
59.982397789331444
10
138.1854897538685
20
49.982397789331444
10
141.1854897538685
20
49.982397789331472
10
141.18548975386844
20
59.982397789331472
0
LWPOLYLINE
5
139
100
AcDbEntity
8
0
100
AcDbPolyline
90
10
70
1
43
0.0
10
135.18548975386818
20
111.98239878770922
10
166.18548951370718
20
111.98239875500597
42
-0.41421356237309814
10
171.1854895137073
20
106.98239875500599
10
171.18548951370758
20
49.982398755005974
42
-0.41421356237309398
10
166.18548951370764
20
44.982398755005953
10
135.18548975386852
20
44.982397789331444
10
135.18548975386844
20
64.982397789331458
10
144.18548975386844
20
64.982397789331444
10
144.1854897538683
20
91.982398787709258
10
135.1854897538683
20
91.982398787709215
0
LWPOLYLINE
5
140
100
AcDbEntity
8
0
100
AcDbPolyline
90
8
70
1
43
0.0
10
161.86950058553364
20
37.681263061571038
10
166.86950058553364
20
37.681263061571059
10
166.86950058553364
20
34.681263061571045
10
146.86950058553364
20
34.681263061570959
10
146.86950058553361
20
37.681263061570966
10
151.86950058553361
20
37.681263061570988
10
151.86950058553359
20
43.681263061570981
10
161.86950058553356
20
43.68126306157103
0
LWPOLYLINE
5
141
100
AcDbEntity
8
0
100
AcDbPolyline
90
8
70
1
43
0.0
10
146.25682852405927
20
26.444490468072459
10
151.25682852405927
20
26.444490468072495
10
151.25682852405924
20
32.444490468072487
10
161.25682852405924
20
32.444490468072544
10
161.2568285240593
20
26.444490468072548
10
166.2568285240593
20
26.444490468072566
10
166.2568285240593
20
23.444490468072559
10
146.2568285240593
20
23.444490468072452
0
LWPOLYLINE
5
142
100
AcDbEntity
8
0
100
AcDbPolyline
90
8
70
1
43
0.0
10
151.25254248730278
20
18.162795148428401
10
146.25254248730278
20
18.162795148428437
10
146.25254248730278
20
21.162795148428444
10
166.25254248730278
20
21.162795148428337
10
166.25254248730278
20
18.16279514842833
10
161.25254248730278
20
18.162795148428348
10
161.25254248730272
20
12.162795148428351
10
151.25254248730275
20
12.162795148428405
0
LWPOLYLINE
5
143
100
AcDbEntity
8
0
100
AcDbPolyline
90
8
70
1
43
0.0
10
166.03345137716383
20
7.3477778584537567
10
161.03345137716383
20
7.3477778584537745
10
161.03345137716374
20
1.3477778584537781
10
151.03345137716377
20
1.3477778584538314
10
151.0334513771638
20
7.3477778584538278
10
146.0334513771638
20
7.3477778584538456
10
146.03345137716383
20
10.347777858453853
10
166.03345137716383
20
10.347777858453764
0
LWPOLYLINE
5
144
100
AcDbEntity
8
0
100
AcDbPolyline
90
8
70
1
43
0.0
10
151.25254248730266
20
-3.8372048515716006
10
146.25254248730266
20
-3.8372048515715651
10
146.25254248730269
20
-0.837204851571558
10
166.25254248730269
20
-0.83720485157166458
10
166.25254248730269
20
-3.8372048515716717
10
161.25254248730269
20
-3.8372048515716539
10
161.25254248730261
20
-9.8372048515716504
10
151.25254248730263
20
-9.8372048515715971
0
LWPOLYLINE
5
145
100
AcDbEntity
8
0
100
AcDbPolyline
90
8
70
1
43
0.0
10
166.03345137716371
20
-14.652222141546245
10
161.03345137716371
20
-14.652222141546227
10
161.03345137716363
20
-20.652222141546225
10
151.03345137716366
20
-20.652222141546169
10
151.03345137716369
20
-14.652222141546174
10
146.03345137716369
20
-14.652222141546156
10
146.03345137716371
20
-11.652222141546149
10
166.03345137716371
20
-11.652222141546238
0
LWPOLYLINE
5
146
100
AcDbEntity
8
0
100
AcDbPolyline
90
12
70
1
43
0.0
10
-124.99426597050868
20
-113.88729051024688
10
-124.99426597050868
20
-102.18729051024687
10
-127.69426597050867
20
-102.18729051024687
10
-127.69426597050867
20
-113.88729051024688
10
-131.15857038547946
20
-113.88729051024688
10
-131.15857038547946
20
-93.687290510246868
10
-135.34426597050867
20
-93.687290510246868
10
-135.34426597050867
20
-90.687290510246868
10
-117.34426597050867
20
-90.687290510246868
10
-117.34426597050867
20
-93.687290510246868
10
-121.52996155553787
20
-93.687290510246868
10
-121.52996155553787
20
-113.88729051024688
0
LWPOLYLINE
5
147
100
AcDbEntity
8
0
100
AcDbPolyline
90
12
70
1
43
0.0
10
-114.65517670137106
20
-96.751336522036297
10
-114.65517670137106
20
-108.25133652203631
10
-111.95517670137107
20
-108.25133652203627
10
-111.95517670137107
20
-96.751336522036269
10
-108.30517670137105
20
-96.751336522036269
10
-108.30517670137107
20
-116.95133652203629
10
-104.30517670137108
20
-116.9513365220363
10
-104.30517670137107
20
-119.95133652203631
10
-122.30517670137105
20
-119.95133652203631
10
-122.30517670137107
20
-116.9513365220363
10
-118.30517670137107
20
-116.9513365220363
10
-118.30517670137105
20
-96.751336522036283
0
LWPOLYLINE
5
148
100
AcDbEntity
8
0
100
AcDbPolyline
90
12
70
1
43
0.0
10
-91.037678124107117
20
-115.56836575011688
10
-91.037678135880356
20
-112.86836575011689
10
-94.687678135880375
20
-112.86836576603258
10
-94.687678151796064
20
-109.21836576603258
10
-97.387678151796067
20
-109.21836577780584
10
-97.387678135880378
20
-112.86836577780583
10
-101.03767813588036
20
-112.86836579372152
10
-101.03767812410712
20
-115.56836579372153
10
-97.387678124107126
20
-115.56836577780585
10
-97.387678108191423
20
-119.21836577780584
10
-94.687678108191434
20
-119.21836576603258
10
-94.687678124107123
20
-115.56836576603258
0
CIRCLE
5
149
100
AcDbEntity
8
0
100
AcDbCircle
10
-96.037678129993736
20
-114.21836577191922
30
0
40
7.5
210
0
220
0
230
1
0
ENDSEC
0
SECTION
2
OBJECTS
0
DICTIONARY
5
C
100
AcDbDictionary
3
ACAD_GROUP
350
D
3
ACAD_MLINESTYLE
350
17
0
DICTIONARY
5
D
100
AcDbDictionary
0
DICTIONARY
5
1A
330
C
100
AcDbDictionary
0
DICTIONARY
5
17
100
AcDbDictionary
0
ENDSEC
0
EOF
